<?xml version="1.0" encoding="UTF-8" standalone="no"?>
<!-- Created with Inkscape (http://www.inkscape.org/) -->

<svg
   width="68.921997mm"
   height="9.3710003mm"
   viewBox="0 0 68.921997 9.3710003"
   version="1.1"
   id="svg5"
   xml:space="preserve"
   xmlns="http://www.w3.org/2000/svg"
   xmlns:svg="http://www.w3.org/2000/svg"><defs
     id="defs2" /><g
     id="layer1"><path
       style="fill:#000000;stroke-width:0.0211667"
       d="m 0.00181717,9.0273135 c -0.002099998,-0.18917 -0.002399998,-0.363 -7.95e-4,-0.38629 0.0016,-0.0233 0.0044,-0.20372 0.0062,-0.400973 l 0.0032,-0.358641 0.110288,-0.117609 c 0.141789,-0.1512 0.194494,-0.228597 0.252118,-0.370234 0.03205,-0.07877 0.09752,-0.16773 0.208188,-0.282888 0.08879,-0.09239 0.176271,-0.196664 0.194396,-0.231713 0.01812,-0.03505 0.04709,-0.06915 0.06438,-0.07578 0.01728,-0.0066 0.0413,-0.04872 0.05336,-0.09353 0.01207,-0.04481 0.05066,-0.108995 0.08578,-0.142633 0.03511,-0.03364 0.06384,-0.07665 0.06384,-0.09557 0,-0.01893 0.02858,-0.06179 0.0635,-0.09525 0.03493,-0.03346 0.0635,-0.07163 0.0635,-0.08482 0,-0.01319 0.03334,-0.06293 0.07408,-0.110529 0.04075,-0.0476 0.07408,-0.0933 0.07408,-0.101558 0,-0.0083 0.02858,-0.04755 0.0635,-0.08733 0.03492,-0.03978 0.0635,-0.08606 0.0635,-0.102848 0,-0.01679 0.02381,-0.04613 0.05292,-0.0652 0.0291,-0.01907 0.05292,-0.04784 0.05292,-0.06393 0,-0.01609 0.03334,-0.06615 0.07408,-0.111256 0.04075,-0.0451 0.07408,-0.09307 0.07408,-0.106599 0,-0.01353 0.03096,-0.05654 0.06879,-0.09558 0.135259,-0.139564 0.185208,-0.199308 0.185208,-0.221527 0,-0.01241 0.03334,-0.05289 0.07408,-0.08997 0.04075,-0.03708 0.07408,-0.07932 0.07408,-0.09388 0,-0.01456 0.02858,-0.05051 0.0635,-0.0799 0.03492,-0.02939 0.0635,-0.06496 0.0635,-0.07904 0,-0.01409 0.05715,-0.07999 0.127,-0.1464564 0.07085,-0.06741 0.127,-0.139174 0.127,-0.162297 0,-0.0228 0.02858,-0.06883 0.0635,-0.102287 0.03493,-0.03346 0.0635,-0.07297 0.0635,-0.08781 0,-0.02947 0.161879,-0.197941 0.190194,-0.197941 0.0096,0 0.101744,-0.08063 0.204699,-0.179171 0.1029539,-0.09854 0.1976199,-0.179507 0.2103679,-0.179917 0.01275,-4.1e-4 0.04042,-0.0198 0.06149,-0.04308 0.02107,-0.02328 0.04724,-0.04233 0.05814,-0.04233 0.02589,0 0.130113,-0.07986 0.20028,-0.153458 0.03052,-0.03202 0.06668,-0.05821 0.08035,-0.05821 0.01367,0 0.0357,-0.02381 0.04896,-0.05292 0.01326,-0.0291 0.03806,-0.05292 0.05511,-0.05292 0.01705,0 0.04345,-0.01667 0.05866,-0.03705 0.01521,-0.02038 0.06561,-0.06562 0.111994,-0.100541 0.08699,-0.06549 0.113321,-0.08246 0.215556,-0.138934 0.265508,-0.146667 0.315988,-0.177609 0.330869,-0.202808 0.0093,-0.01577 0.03093,-0.02866 0.04805,-0.02866 0.01712,0 0.07141,-0.02583 0.120657,-0.05741 0.04925,-0.03157 0.127638,-0.07544 0.174204,-0.09749 0.28442,-0.134669 0.657982,-0.323334 0.668354,-0.337547 0.02936,-0.04023 0.249249,-0.166819 0.325574,-0.18743 0.04607,-0.01244 0.146081,-0.05389 0.22225,-0.09211 0.07617,-0.03822 0.209926,-0.08521 0.297239,-0.104409 0.08731,-0.0192 0.200203,-0.05847 0.250869,-0.08726 0.05066,-0.02879 0.12576,-0.05234 0.166877,-0.05234 0.07136,0 0.200507,-0.02813 0.291337,-0.06346 0.21385,-0.08318 0.795367,-0.114153 1.217084,-0.06484 0.228045,0.02667 0.7033841,0.06597 0.9101661,0.07526 0.08731,0.0039 0.27305,0.01936 0.41275,0.0343 0.31861,0.03409 1.1903248,0.04042 1.6988138,0.01234 0.503723,-0.02782 1.048727,0.0043 1.342522,0.07911 0.112751,0.02871 0.222288,0.06099 0.243416,0.07174 0.02113,0.01075 0.08128,0.04148 0.133665,0.06828 0.05239,0.02681 0.109537,0.05592 0.127,0.06469 0.0292,0.01467 0.153077,0.06005 0.338667,0.124074 0.04075,0.01405 0.111782,0.03473 0.15786,0.04595 0.04608,0.01122 0.112752,0.0334 0.148166,0.0493 0.03541,0.0159 0.126303,0.04985 0.201974,0.07545 0.07567,0.0256 0.146632,0.05496 0.157691,0.06525 0.01106,0.01028 0.04145,0.0187 0.06754,0.0187 0.02609,0 0.05332,0.0095 0.06052,0.02117 0.0072,0.01164 0.02827,0.02117 0.04683,0.02117 0.01856,0 0.08402,0.02378 0.145449,0.05284 0.295926,0.139996 0.574956,0.213853 0.961303,0.254452 0.157162,0.01651 0.340191,0.04483 0.406729,0.06292 0.189257,0.05146 0.624525,0.04883 0.979688,-0.0059 0.162983,-0.02512 0.39315,-0.05396 0.511482,-0.06408 0.142507,-0.0122 0.225871,-0.02913 0.246905,-0.05017 0.01747,-0.01747 0.06352,-0.04379 0.102351,-0.0585 0.07796,-0.02953 0.201271,-0.08287 0.250512,-0.108343 0.01746,-0.009 0.10795,-0.05566 0.201083,-0.103623 0.09313,-0.04796 0.207433,-0.115099 0.254,-0.149203 0.04657,-0.0341 0.166833,-0.109889 0.267258,-0.168413 0.100425,-0.05852 0.19446,-0.120708 0.208967,-0.138188 0.01451,-0.01748 0.03636,-0.03178 0.04857,-0.03178 0.01221,0 0.03968,-0.01582 0.06105,-0.03516 0.02137,-0.01934 0.05759,-0.04553 0.08048,-0.05821 0.02289,-0.01268 0.115698,-0.06635 0.20623,-0.119286 0.09053,-0.05293 0.212229,-0.119607 0.270437,-0.148166 0.05821,-0.02856 0.110596,-0.05787 0.116417,-0.06513 0.0058,-0.0073 0.07726,-0.0433 0.15875,-0.08008 0.08149,-0.03678 0.164706,-0.07608 0.184921,-0.08734 0.02022,-0.01125 0.05208,-0.02046 0.07082,-0.02046 0.01873,0 0.05935,-0.01356 0.09025,-0.03012 0.199105,-0.106761 0.396283,-0.184663 0.542841,-0.214468 0.09304,-0.01892 0.175707,-0.03845 0.183709,-0.04339 0.0267,-0.0165 0.489574,-0.07185 0.600898,-0.07185 0.06038,0 0.184815,-0.0189 0.276513,-0.04201 0.0917,-0.02311 0.219109,-0.04223 0.283138,-0.04249 0.152817,-6.36e-4 0.344396,-0.03257 0.506927,-0.08449 0.07217,-0.02305 0.213851,-0.0528 0.314852,-0.06611 0.169617,-0.02235 0.311874,-0.05293 0.485263,-0.104338 0.03784,-0.01122 0.101712,-0.02882 0.14195,-0.03912 0.04024,-0.0103 0.08854,-0.03411 0.107344,-0.05292 0.0188,-0.0188 0.0448,-0.03419 0.05777,-0.03419 0.01297,0 0.04636,-0.02143 0.0742,-0.04762 0.04659,-0.04384 0.0795,-0.04906 0.414113,-0.06564 0.493046,-0.02444 0.748898,-0.02328 1.284248,0.0058 0.250295,0.0136 0.645583,0.0326 0.878416,0.04223 0.367663,0.0152 0.446613,0.02482 0.600357,0.07312 0.09736,0.03059 0.202821,0.05562 0.234355,0.05562 0.03153,0 0.09951,0.0133 0.15106,0.02956 0.291262,0.09186 0.695691,0.09729 1.008827,0.01356 0.09042,-0.02418 0.199305,-0.05344 0.241966,-0.06502 0.04266,-0.01158 0.111017,-0.0545 0.151901,-0.09538 0.04088,-0.04088 0.10599,-0.08506 0.144683,-0.09818 0.03869,-0.01312 0.09416,-0.04014 0.123268,-0.06006 0.07213,-0.04935 0.234351,-0.119021 0.320584,-0.137674 0.03905,-0.0084 0.113862,-0.03657 0.166249,-0.0625 0.05239,-0.02593 0.204788,-0.08869 0.338667,-0.139472 0.326441,-0.123828 0.491596,-0.129353 0.846667,-0.02832 0.133879,0.03809 0.343429,0.09407 0.465666,0.124386 0.235122,0.05832 0.43092,0.112147 1.04775,0.288044 0.487824,0.139109 0.608595,0.165911 0.751417,0.166757 0.163227,9.68e-4 0.469426,-0.0861 0.70768,-0.201232 0.184249,-0.08903 0.239992,-0.104225 0.630921,-0.171942 l 0.428815,-0.07428 0.3175,0.04583 c 0.285782,0.04125 0.501574,0.08406 0.92075,0.182672 0.146533,0.03447 0.26328,0.09475 0.282986,0.146098 0.0066,0.01723 0.02946,0.03132 0.05078,0.03132 0.02132,0 0.04781,0.009 0.05887,0.02002 0.02291,0.02281 0.621468,0.03066 1.045305,0.01371 0.27471,-0.01098 0.29158,-0.0091 0.496867,0.05465 0.116878,0.03631 0.251312,0.08665 0.298742,0.111873 0.04743,0.02522 0.133405,0.05776 0.19105,0.0723 0.05764,0.01455 0.138149,0.03566 0.178894,0.04691 0.07969,0.02201 0.40316,0.09193 0.592667,0.128113 0.177178,0.03383 0.389528,0.01585 0.448761,-0.03799 0.04158,-0.0378 0.06773,-0.04273 0.179824,-0.03395 0.07214,0.0057 0.158773,6.56e-4 0.192515,-0.01111 0.03672,-0.0128 0.09877,-0.01448 0.154582,-0.0042 0.09054,0.0167 0.276985,-0.02482 0.383989,-0.08551 0.02022,-0.01147 0.05414,-0.02085 0.0754,-0.02085 0.02125,0 0.07807,-0.01905 0.126265,-0.04233 0.04819,-0.02328 0.0976,-0.04233 0.109808,-0.04233 0.01221,0 0.02219,-0.008 0.02219,-0.01778 0,-0.0098 0.0387,-0.03055 0.08601,-0.04617 0.04731,-0.01561 0.110615,-0.05762 0.140689,-0.09335 l 0.05468,-0.06496 0.254551,0.0022 c 0.222417,0.0019 0.258766,0.0073 0.287936,0.04233 0.04425,0.05318 0.173501,0.134558 0.32972,0.207585 0.196581,0.0919 0.615579,0.243453 0.714942,0.258607 0.04917,0.0075 0.100855,0.02266 0.114865,0.03368 0.02685,0.02114 0.125783,0.05386 0.387276,0.128103 0.256506,0.07283 0.576182,0.06377 0.899583,-0.02548 0.1397,-0.03856 0.325438,-0.08844 0.41275,-0.110855 0.08731,-0.02241 0.188765,-0.0546 0.225449,-0.07151 0.03669,-0.01691 0.08193,-0.03075 0.100541,-0.03075 0.01861,0 0.03384,-0.0085 0.03384,-0.01881 0,-0.01035 0.03572,-0.02515 0.07938,-0.0329 0.09886,-0.01755 0.259291,-0.07631 0.259291,-0.09496 0,-0.0077 0.05723,-0.02662 0.127166,-0.04214 0.09711,-0.02154 0.235794,-0.02468 0.58679,-0.01329 0.252794,0.0082 0.465714,0.01869 0.473156,0.02329 0.0074,0.0046 0.09819,0.01919 0.201669,0.03243 0.103476,0.01324 0.245286,0.03139 0.315136,0.04035 0.165022,0.02116 0.554662,-0.01344 0.732532,-0.06505 0.309416,-0.08977 0.631819,-0.02312 0.960801,0.198642 0.147511,0.09943 0.273182,0.194126 0.336301,0.253397 0.10501,0.09861 0.269587,0.163547 0.414485,0.163547 0.149738,0 0.236752,-0.03175 0.373772,-0.13637 0.05424,-0.04141 0.116294,-0.0753 0.137903,-0.0753 0.02161,0 0.03929,-0.01101 0.03929,-0.02446 0,-0.04066 0.105726,-0.16604 0.140018,-0.16604 0.01761,0 0.08409,-0.02381 0.147716,-0.05292 0.06363,-0.02911 0.123763,-0.05292 0.133635,-0.05292 0.0099,0 0.02957,-0.01401 0.04378,-0.03112 0.01421,-0.01712 0.108242,-0.05579 0.208966,-0.08594 0.100726,-0.03015 0.212389,-0.06377 0.248141,-0.07471 0.09039,-0.02766 0.426492,-0.02543 0.44403,0.0029 0.0078,0.01256 0.125009,0.07516 0.260541,0.13911 0.25546,0.120534 0.389229,0.1855551 0.452801,0.2200931 0.02037,0.01107 0.0503,0.02727 0.0665,0.036 0.0162,0.0087 0.09528,0.06112 0.175719,0.116417 0.08044,0.0553 0.158683,0.100541 0.173868,0.100541 0.01518,0 0.06232,0.0272 0.104739,0.06044 0.04242,0.03324 0.100941,0.07273 0.130045,0.08776 0.02911,0.01503 0.06054,0.04022 0.06984,0.05598 0.0093,0.01576 0.038,0.02866 0.06377,0.02866 0.02576,0 0.06472,0.02381 0.08658,0.05292 0.02186,0.0291 0.04894,0.05292 0.06019,0.05292 0.01125,0 0.03872,0.02323 0.06105,0.05161 0.02233,0.02839 0.132508,0.09632 0.244841,0.150961 0.192856,0.09381 0.213184,0.09914 0.364609,0.09563 0.188686,-0.0044 0.23749,-0.01339 0.350877,-0.06483 0.244518,-0.110923 0.325053,-0.144963 0.402167,-0.169987 0.04657,-0.01511 0.103717,-0.03945 0.127,-0.05408 0.02328,-0.01463 0.08986,-0.04243 0.147942,-0.06176 0.09222,-0.0307 0.13381,-0.03207 0.328084,-0.01079 0.244851,0.02681 0.375086,0.05663 0.423557,0.09697 0.01746,0.01453 0.07937,0.04517 0.137584,0.06807 0.163538,0.06436 0.473096,0.214637 0.486372,0.236119 0.01082,0.0175 0.272484,0.148912 0.296513,0.148912 0.0056,0 0.06987,0.02942 0.14282,0.06539 0.228701,0.112751 0.393179,0.167447 0.503527,0.167447 0.05794,0 0.105351,-0.0095 0.105351,-0.02117 0,-0.01164 0.0089,-0.02117 0.01976,-0.02117 0.01087,0 0.08707,-0.03026 0.169334,-0.06725 0.101003,-0.04541 0.149572,-0.07903 0.149572,-0.103539 0,-0.02105 0.02221,-0.04186 0.05292,-0.04957 0.02911,-0.0073 0.05292,-0.02586 0.05292,-0.04123 0,-0.01537 0.03334,-0.05828 0.07408,-0.09536 0.04075,-0.03708 0.07421,-0.08385 0.07437,-0.103943 5.51e-4,-0.07165 0.168271,-0.254663 0.28346,-0.309325 0.04041,-0.01918 0.07898,-0.05222 0.08572,-0.07344 0.0067,-0.02121 0.03663,-0.05163 0.06645,-0.06758 0.02981,-0.01596 0.06333,-0.04606 0.07448,-0.06689 0.01115,-0.02083 0.03401,-0.03788 0.05079,-0.03788 0.01679,0 0.04612,-0.02381 0.06519,-0.05292 0.01907,-0.02911 0.04607,-0.05292 0.05999,-0.05292 0.01393,0 0.04379,-0.01691 0.06636,-0.03758 0.08057,-0.07379 0.217382,-0.100224 0.496117,-0.09584 0.359025,0.0056 0.389164,0.01109 0.593968,0.107405 0.19082,0.08974 0.626889,0.237344 0.703718,0.238206 0.02552,2.86e-4 0.09878,0.01798 0.162814,0.03931 0.06403,0.02134 0.164042,0.04548 0.22225,0.05366 0.05821,0.0082 0.179862,0.02949 0.270341,0.04736 0.212037,0.04188 0.526984,0.0093 0.633812,-0.06548 0.02595,-0.01818 0.05795,-0.03305 0.07111,-0.03305 0.02257,0 0.469885,-0.210003 0.538152,-0.252648 0.06533,-0.04081 0.177088,-0.08602 0.212653,-0.08602 0.02025,0 0.04184,-0.0131 0.04799,-0.0291 0.0061,-0.016 0.03812,-0.0346 0.07106,-0.04133 0.03294,-0.0067 0.121802,-0.02722 0.197472,-0.04555 0.172394,-0.04175 0.591378,-0.07989 0.910167,-0.08285 0.223338,-0.0021 0.373452,0.01984 0.497417,0.0726 0.07037,0.02995 0.386842,0.105056 0.44269,0.105056 0.02872,0 0.05752,0.0086 0.06399,0.01904 0.0065,0.01047 0.0618,0.03026 0.122957,0.04396 0.06115,0.01371 0.154054,0.04208 0.206441,0.06305 0.05239,0.02097 0.154993,0.04455 0.228014,0.05239 0.135238,0.01453 0.449319,0.142486 0.449319,0.183054 0,0.0113 0.02619,0.03032 0.05821,0.04226 0.142894,0.05329 0.702204,0.344742 0.712355,0.371198 0.0062,0.01616 0.02529,0.02938 0.04243,0.02938 0.03678,0 0.466181,0.221635 0.539238,0.278327 0.02776,0.02155 0.06259,0.03917 0.0774,0.03917 0.05962,0 0.32272,0.134829 0.415667,0.213015 0.05448,0.04582 0.108771,0.08332 0.120656,0.08332 0.01189,0 0.02923,0.01285 0.03854,0.02856 0.0093,0.01571 0.07719,0.06943 0.15084,0.119383 0.162312,0.11008 0.303107,0.245087 0.6183,0.592887 0.3887,0.428912 0.512715,0.550194 0.604348,0.591034 l 0.08656,0.03858 0.01398,0.260016 c 0.01749,0.325213 0.01552,0.9113014 -0.0035,1.0329774 l -0.01431,0.09169 -0.232833,-0.202832 c -0.128058,-0.111558 -0.256646,-0.234393 -0.28575,-0.272968 -0.0291,-0.03857 -0.09816,-0.1158324 -0.153458,-0.1716834 -0.0553,-0.05585 -0.100542,-0.114769 -0.100542,-0.13093 0,-0.01616 -0.0088,-0.02938 -0.01962,-0.02938 -0.01079,0 -0.09149,-0.07382 -0.179335,-0.164041 -0.08784,-0.09022 -0.183786,-0.188213 -0.213212,-0.217756 -0.02942,-0.02954 -0.05354,-0.06288 -0.0536,-0.07408 0,-0.0112 -0.05721,-0.05782 -0.127,-0.103581 -0.06979,-0.04577 -0.126895,-0.09577 -0.126895,-0.111125 0,-0.01541 -0.02292,-0.02791 -0.05115,-0.02791 -0.03449,0 -0.0569,-0.01613 -0.06879,-0.04952 -0.03072,-0.08624 -0.310375,-0.289147 -0.398511,-0.289147 -0.01392,0 -0.04346,-0.02036 -0.06564,-0.04525 -0.02218,-0.02489 -0.0689,-0.05838 -0.103822,-0.07443 -0.07042,-0.03236 -0.263015,-0.164938 -0.29682,-0.204331 -0.03098,-0.0361 -0.07987,-0.06434 -0.305575,-0.176539 -0.110124,-0.05474 -0.240094,-0.126436 -0.288819,-0.159321 -0.04873,-0.03288 -0.100885,-0.05979 -0.115909,-0.05979 -0.01502,0 -0.04698,-0.01738 -0.07101,-0.03863 -0.02403,-0.02125 -0.08418,-0.05135 -0.133657,-0.06689 -0.04948,-0.01554 -0.08996,-0.03626 -0.08996,-0.04604 0,-0.0098 -0.01126,-0.01778 -0.02501,-0.01778 -0.03848,0 -0.458065,-0.165461 -0.482991,-0.190467 -0.01371,-0.01375 -0.128478,-0.06652 -0.275167,-0.126515 -0.06403,-0.02619 -0.168804,-0.06992 -0.232833,-0.09717 -0.153514,-0.06535 -0.33833,-0.115012 -0.428041,-0.115012 -0.03975,0 -0.124011,-0.01597 -0.187243,-0.03549 -0.08997,-0.02777 -0.204721,-0.03583 -0.527716,-0.03704 -0.386514,-0.0015 -0.422169,0.0018 -0.560917,0.05056 -0.08149,0.02866 -0.170045,0.06849 -0.196786,0.08849 -0.02674,0.02001 -0.07913,0.04299 -0.116417,0.05106 -0.03729,0.0081 -0.09302,0.0325 -0.123853,0.05429 -0.05547,0.0392 -0.392866,0.200509 -0.515444,0.246438 -0.03493,0.01309 -0.12065,0.03484 -0.1905,0.04833 -0.06985,0.0135 -0.169862,0.04206 -0.22225,0.06347 -0.14595,0.05966 -0.302256,0.07938 -0.60325,0.07612 -0.216196,-0.0023 -0.290606,-0.01092 -0.347209,-0.04002 -0.03962,-0.02037 -0.08747,-0.03704 -0.106316,-0.03704 -0.04377,0 -0.317947,-0.105998 -0.459715,-0.17773 -0.0599,-0.03031 -0.11705,-0.05508 -0.127,-0.05504 -0.01827,6.4e-5 -0.251356,-0.09113 -0.34275,-0.134107 -0.02722,-0.0128 -0.127865,-0.02359 -0.223664,-0.02399 -0.141903,-5.84e-4 -0.195482,0.0091 -0.289177,0.05213 -0.06325,0.02906 -0.127588,0.06478 -0.142972,0.07937 -0.01538,0.01459 -0.04136,0.02653 -0.05772,0.02653 -0.01636,0 -0.04535,0.02381 -0.06442,0.05292 -0.01907,0.0291 -0.04625,0.05292 -0.06041,0.05292 -0.01416,0 -0.0384,0.02365 -0.05387,0.05257 -0.01547,0.02891 -0.0436,0.05747 -0.06251,0.06348 -0.03936,0.01249 -0.339847,0.318286 -0.339847,0.345845 0,0.02275 -0.302154,0.275516 -0.402529,0.336734 -0.04094,0.02497 -0.09737,0.06981 -0.125398,0.09964 -0.02802,0.02983 -0.06325,0.05424 -0.07827,0.05424 -0.01502,0 -0.03651,0.01718 -0.04774,0.03817 -0.0221,0.0413 -0.191804,0.130957 -0.348696,0.184223 -0.07803,0.02649 -0.107338,0.02811 -0.1449,0.008 -0.0259,-0.01386 -0.123578,-0.03819 -0.217067,-0.05408 -0.285191,-0.04845 -0.590948,-0.149854 -0.689311,-0.228611 -0.08491,-0.06799 -0.392185,-0.21427 -0.644836,-0.306988 -0.113989,-0.04183 -0.261756,-0.119709 -0.381,-0.200799 -0.05573,-0.03789 -0.0933,-0.04275 -0.306917,-0.0397 -0.223511,0.0032 -0.254946,0.0088 -0.384423,0.06879 -0.07755,0.03592 -0.155572,0.06531 -0.173376,0.06531 -0.0178,0 -0.03826,0.0095 -0.04545,0.02117 -0.0072,0.01164 -0.03979,0.02117 -0.07242,0.02117 -0.03264,0 -0.138199,0.01963 -0.234577,0.04361 -0.190733,0.04747 -0.561078,0.0594 -0.633908,0.02043 -0.02231,-0.01194 -0.06261,-0.0224 -0.08957,-0.02325 -0.02696,-8.51e-4 -0.07759,-0.0198 -0.112516,-0.04211 -0.03493,-0.02231 -0.08731,-0.05215 -0.116417,-0.06631 -0.0291,-0.01416 -0.08625,-0.05025 -0.127,-0.08018 -0.04075,-0.02993 -0.10742,-0.07097 -0.148166,-0.09119 -0.118523,-0.05881 -0.267951,-0.149549 -0.311258,-0.189012 -0.02199,-0.02004 -0.0824,-0.05916 -0.134235,-0.08694 -0.05184,-0.02778 -0.129976,-0.07092 -0.173632,-0.09586 -0.04366,-0.02494 -0.111976,-0.06382 -0.15182,-0.0864 -0.03984,-0.02258 -0.127951,-0.07861 -0.195792,-0.124507 -0.154775,-0.10472 -0.276399,-0.166224 -0.380759,-0.192544 -0.04469,-0.01127 -0.119354,-0.03033 -0.165921,-0.04236 -0.130759,-0.03377 -0.282732,-0.02698 -0.378682,0.01692 -0.04784,0.02189 -0.137243,0.06173 -0.19867,0.08855 -0.06143,0.02681 -0.154579,0.08813 -0.207002,0.136263 -0.05243,0.04813 -0.133909,0.110678 -0.181075,0.138994 -0.04716,0.02832 -0.111177,0.0717 -0.142246,0.09642 -0.139615,0.111045 -0.709231,0.235954 -0.913742,0.20037 -0.282077,-0.04908 -0.514218,-0.167502 -0.718972,-0.366769 -0.03276,-0.03188 -0.101221,-0.07583 -0.152137,-0.09765 -0.05092,-0.02183 -0.105512,-0.05527 -0.121324,-0.07432 -0.01581,-0.01905 -0.04208,-0.03464 -0.05836,-0.03464 -0.01629,0 -0.03992,-0.02262 -0.05251,-0.05026 -0.01259,-0.02764 -0.06716,-0.07288 -0.121253,-0.100541 -0.09023,-0.04613 -0.125461,-0.05049 -0.426441,-0.05274 -0.293274,-0.0022 -0.746582,-0.03843 -0.78607,-0.06284 -0.04238,-0.02619 -0.803802,-0.04946 -1.092012,-0.03337 l -0.322332,0.01799 -0.185668,0.09304 c -0.102116,0.05118 -0.204133,0.109808 -0.226701,0.130297 -0.02257,0.02049 -0.05114,0.03731 -0.0635,0.03739 -0.01236,7.4e-5 -0.09867,0.03811 -0.1918,0.08453 -0.09313,0.04642 -0.194964,0.08446 -0.226293,0.08453 -0.03133,6.3e-5 -0.06229,0.0088 -0.06882,0.01932 -0.0065,0.01055 -0.06185,0.02582 -0.122957,0.03394 -0.06111,0.0081 -0.163489,0.02835 -0.227518,0.04496 -0.06403,0.01661 -0.218074,0.03572 -0.342322,0.04245 l -0.225906,0.01225 -0.282094,-0.110451 c -0.155152,-0.06075 -0.339245,-0.140884 -0.409095,-0.178082 -0.06985,-0.0372 -0.22225,-0.09934 -0.338667,-0.138102 -0.22374,-0.07449 -0.225659,-0.0753 -0.397819,-0.168052 -0.22193,-0.119565 -0.469849,-0.151167 -0.681681,-0.08689 -0.03493,0.0106 -0.08731,0.02352 -0.116416,0.02872 -0.107203,0.01915 -0.663052,0.184709 -0.756709,0.225386 -0.114029,0.04953 -0.153136,0.06444 -0.333375,0.127162 -0.178587,0.06214 -0.214655,0.06703 -0.576819,0.07816 -0.246685,0.0076 -0.457079,0.0027 -0.582083,-0.01342 -0.255228,-0.03298 -0.617944,-0.102028 -0.724931,-0.138009 -0.04657,-0.01566 -0.137054,-0.04029 -0.201083,-0.05473 -0.06403,-0.01444 -0.125942,-0.03357 -0.137584,-0.04251 -0.01164,-0.0089 -0.06403,-0.02843 -0.116416,-0.04331 -0.05239,-0.01488 -0.104775,-0.03366 -0.116417,-0.04172 -0.09982,-0.06914 -0.460057,-0.124415 -0.656167,-0.100688 -0.06985,0.0085 -0.274093,0.01068 -0.453874,0.005 -0.283308,-0.009 -0.356656,-0.01908 -0.550334,-0.07543 -0.122902,-0.03576 -0.238127,-0.07241 -0.256053,-0.08146 -0.01793,-0.009 -0.0846,-0.02322 -0.148166,-0.0315 -0.06357,-0.0083 -0.182248,-0.04618 -0.263739,-0.08422 -0.314332,-0.146735 -0.942558,-0.185849 -1.227667,-0.07644 -0.171704,0.06589 -0.538609,0.173522 -0.687916,0.201796 -0.09895,0.01874 -0.218017,0.04264 -0.264584,0.05311 -0.198994,0.04475 -0.406887,0.04889 -0.575424,0.01146 -0.17051,-0.03787 -0.46667,-0.131441 -0.504076,-0.159259 -0.01164,-0.0087 -0.0545,-0.0218 -0.09525,-0.0292 -0.04075,-0.0074 -0.101069,-0.02754 -0.134053,-0.04475 -0.03298,-0.01721 -0.09966,-0.04137 -0.148166,-0.05369 -0.04851,-0.01232 -0.107247,-0.03008 -0.130531,-0.03948 -0.02328,-0.0094 -0.113771,-0.03955 -0.201083,-0.067 -0.08731,-0.02745 -0.163513,-0.05614 -0.169333,-0.06377 -0.0058,-0.0076 -0.03916,-0.0191 -0.07408,-0.02549 -0.03492,-0.0064 -0.1397,-0.03294 -0.232833,-0.05899 -0.189264,-0.05293 -0.500283,-0.06746 -0.584156,-0.02729 -0.108045,0.05174 -0.252093,0.113235 -0.265254,0.113235 -0.01511,0 -0.07521,0.02734 -0.41453,0.188576 -0.124725,0.05927 -0.240777,0.107757 -0.257895,0.107757 -0.01712,0 -0.09128,0.02484 -0.164812,0.05519 -0.459425,0.189666 -0.645171,0.224609 -1.110361,0.208883 -0.204129,-0.0069 -0.444123,-0.02209 -0.533317,-0.03375 -0.0892,-0.01166 -0.300288,-0.02951 -0.469092,-0.03967 -0.517008,-0.03111 -0.796224,-0.07389 -1.037166,-0.158902 -0.104071,-0.03672 -0.327279,-0.08917 -0.391584,-0.09201 -0.07711,-0.0034 -0.7185,0.0024 -0.783166,0.007 -0.09868,0.0072 -0.277677,0.03114 -0.495491,0.06642 -0.174401,0.02824 -0.480449,0.128042 -0.541676,0.176638 -0.07185,0.05702 -0.73148,0.19374 -1.132417,0.234704 -0.320963,0.03279 -0.586839,0.08002 -0.714963,0.12701 -0.06144,0.02253 -0.223368,0.05493 -0.359834,0.07199 -0.313059,0.03915 -0.539664,0.08536 -0.623381,0.127121 -0.03584,0.01788 -0.07798,0.03251 -0.09366,0.03251 -0.01567,0 -0.0285,0.0077 -0.0285,0.017 0,0.0094 -0.07858,0.04835 -0.174625,0.08665 -0.202548,0.08079 -0.314368,0.131988 -0.418042,0.19142 -0.04075,0.02336 -0.150283,0.07756 -0.243416,0.120441 -0.160095,0.07372 -0.433917,0.268678 -0.433917,0.308947 0,0.01021 -0.02858,0.02853 -0.0635,0.04071 -0.03493,0.01217 -0.0635,0.03073 -0.0635,0.04123 0,0.0105 -0.013,0.0191 -0.0289,0.0191 -0.01589,0 -0.05161,0.01745 -0.07937,0.03877 -0.05541,0.04255 -0.165431,0.101948 -0.320354,0.172937 -0.0553,0.02534 -0.100542,0.05298 -0.100542,0.06142 0,0.0084 -0.07382,0.05081 -0.164041,0.09413 -0.09022,0.04333 -0.17833,0.08755 -0.195792,0.09826 -0.06078,0.03728 -0.265349,0.130992 -0.381,0.174527 -0.06403,0.0241 -0.135467,0.05589 -0.15875,0.07065 -0.1131,0.07166 -0.29556,0.101394 -0.635,0.103464 -0.186267,0.0011 -0.419629,0.01385 -0.518583,0.02826 -0.12689,0.01847 -0.285971,0.0214 -0.53975,0.0099 -0.197909,-0.0089 -0.431271,-0.01381 -0.518584,-0.01081 -0.169779,0.0058 -0.334964,-0.01472 -0.656166,-0.08164 -0.420691,-0.08764 -0.507577,-0.110634 -0.867834,-0.229653 -0.203729,-0.06731 -0.413279,-0.135197 -0.465666,-0.150868 -0.05239,-0.01567 -0.140913,-0.05505 -0.196724,-0.08752 -0.05581,-0.03247 -0.114779,-0.05903 -0.131042,-0.05903 -0.01626,0 -0.03579,-0.01006 -0.04339,-0.02236 -0.01383,-0.02238 -0.130077,-0.07887 -0.34851,-0.16935 -0.06403,-0.02652 -0.130704,-0.05979 -0.148167,-0.07392 -0.01746,-0.01413 -0.05556,-0.03275 -0.08467,-0.04137 -0.02911,-0.0086 -0.06401,-0.02453 -0.07758,-0.03535 -0.01356,-0.01082 -0.113575,-0.02849 -0.22225,-0.03926 -0.108674,-0.01077 -0.226165,-0.02434 -0.26109,-0.03015 -0.231302,-0.03848 -0.747956,-0.06132 -1.471083,-0.06503 -1.1063458,-0.0057 -2.0925019,-0.04471 -2.2330839,-0.0884 -0.07296,-0.02267 -0.248255,-0.03774 -0.564302,-0.04851 -0.470057,-0.01601 -0.586715,-0.0065 -0.864448,0.07031 -0.06403,0.01771 -0.202141,0.05269 -0.306916,0.07773 -0.104775,0.02504 -0.219075,0.05571 -0.254,0.06816 -0.120538,0.04297 -0.36735,0.167231 -0.392605,0.197661 -0.01393,0.01679 -0.03777,0.03052 -0.05297,0.03052 -0.01521,0 -0.04023,0.01222 -0.05562,0.02715 -0.0558,0.05418 -0.162225,0.121012 -0.192688,0.121012 -0.01715,0 -0.04226,0.01335 -0.0558,0.02966 -0.01354,0.01631 -0.079,0.05677 -0.145466,0.0899 -0.06647,0.03313 -0.131821,0.07055 -0.145227,0.08316 -0.01341,0.01261 -0.130088,0.06862 -0.259292,0.124465 -0.129204,0.05585 -0.234916,0.110159 -0.234916,0.120695 0,0.01054 -0.06054,0.04718 -0.13454,0.08143 -0.074,0.03425 -0.146601,0.07681 -0.161342,0.09457 -0.01474,0.01776 -0.03845,0.03229 -0.05268,0.03229 -0.01423,0 -0.04312,0.01905 -0.06419,0.04233 -0.02107,0.02328 -0.05048,0.04233 -0.06535,0.04233 -0.01487,0 -0.03378,0.02124 -0.04202,0.0472 -0.0082,0.02596 -0.04093,0.0712 -0.07265,0.100542 -0.07674,0.07097 -0.227686,0.190925 -0.240262,0.190925 -0.01109,0 -0.08981,0.0641 -0.188469,0.153458 -0.03535,0.03202 -0.07,0.05839 -0.077,0.05862 -0.02495,7.95e-4 -0.16654,0.137997 -0.190712,0.184802 -0.01353,0.02619 -0.03739,0.04762 -0.05303,0.04762 -0.01564,0 -0.04008,0.02811 -0.05431,0.06247 -0.01423,0.03436 -0.048,0.07697 -0.07505,0.09469 -0.02704,0.01772 -0.0546,0.04914 -0.06124,0.06982 -0.0066,0.02068 -0.04067,0.05666 -0.07563,0.07994 -0.03496,0.02328 -0.06359,0.05359 -0.06362,0.06735 -3.4e-5,0.01376 -0.02864,0.04536 -0.06356,0.07023 -0.03493,0.02487 -0.0635,0.05816 -0.0635,0.07399 0,0.01583 -0.02203,0.04613 -0.04895,0.06735 -0.02692,0.02122 -0.05788,0.05423 -0.06879,0.07335 -0.02511,0.044 -0.251706,0.301104 -0.342633,0.388753 -0.03784,0.03647 -0.06879,0.08682 -0.06879,0.11189 0,0.02923 -0.02277,0.05735 -0.0635,0.07842 -0.04363,0.02256 -0.0635,0.04864 -0.0635,0.08333 0,0.03012 -0.02562,0.07205 -0.0635,0.103923 -0.03492,0.02939 -0.0635,0.0617 -0.0635,0.07181 0,0.01011 -0.03334,0.05069 -0.07408,0.09019 -0.04076,0.0395 -0.07408,0.09289 -0.07408,0.118687 0,0.02611 -0.02814,0.07056 -0.0635,0.100315 -0.03493,0.02939 -0.0635,0.06805 -0.0635,0.08591 0,0.01787 -0.02848,0.05354 -0.06329,0.07927 -0.03481,0.02573 -0.06833,0.06267 -0.07449,0.08209 -0.0062,0.01941 -0.03483,0.04606 -0.06371,0.05922 -0.02888,0.01316 -0.05251,0.0414 -0.05251,0.06275 0,0.02135 -0.02754,0.06521 -0.06121,0.09747 -0.03366,0.03225 -0.06634,0.08432 -0.07262,0.115707 -0.0063,0.03139 -0.04065,0.08766 -0.07638,0.125044 -0.03573,0.03739 -0.06496,0.08297 -0.06496,0.101287 0,0.01832 -0.02858,0.05735 -0.0635,0.08674 -0.0353,0.0297 -0.0635,0.07422 -0.0635,0.100231 0,0.02574 -0.04524,0.106824 -0.100542,0.180186 -0.0553,0.07336 -0.116615,0.162232 -0.136261,0.197488 -0.01965,0.03526 -0.05829,0.08906 -0.08587,0.119558 -0.05407,0.05979 -0.15523624,0.205987 -0.20649024,0.298418 -0.01746,0.0315 -0.08414,0.103118 -0.148167,0.159158 -0.06403,0.056 -0.125345,0.11709 -0.136258,0.13564 -0.01091,0.0186 -0.04104,0.0505 -0.06695,0.0709 -0.02737,0.0216 -0.05302,0.0721 -0.06122,0.12068 -0.01171,0.0693 -0.02923,0.0924 -0.102617,0.13543 -0.08435,0.0494 -0.215993,0.18988 -0.295524,0.3153 -0.0203,0.032 -0.04622,0.0582 -0.05759,0.0582 -0.01246,0 -0.02218,-0.13675 -0.02445,-0.34396 z"
       id="path137" /></g></svg>
