<?xml version="1.0" encoding="UTF-8" standalone="no"?>
<!-- Created with Inkscape (http://www.inkscape.org/) -->

<svg
   width="34mm"
   height="5.566mm"
   viewBox="0 0 34 5.566"
   version="1.1"
   id="svg5"
   xml:space="preserve"
   inkscape:version="1.2.2 (b0a8486541, 2022-12-01)"
   sodipodi:docname="otm.svg"
   xmlns:inkscape="http://www.inkscape.org/namespaces/inkscape"
   xmlns:sodipodi="http://sodipodi.sourceforge.net/DTD/sodipodi-0.dtd"
   xmlns="http://www.w3.org/2000/svg"
   xmlns:svg="http://www.w3.org/2000/svg"><sodipodi:namedview
     id="namedview7"
     pagecolor="#ffffff"
     bordercolor="#000000"
     borderopacity="0.25"
     inkscape:showpageshadow="2"
     inkscape:pageopacity="0.0"
     inkscape:pagecheckerboard="0"
     inkscape:deskcolor="#d1d1d1"
     inkscape:document-units="mm"
     showgrid="false"
     inkscape:zoom="0.5209506"
     inkscape:cx="498.12784"
     inkscape:cy="493.32892"
     inkscape:window-width="1920"
     inkscape:window-height="1007"
     inkscape:window-x="0"
     inkscape:window-y="0"
     inkscape:window-maximized="1"
     inkscape:current-layer="layer1" /><defs
     id="defs2" /><g
     inkscape:label="Слой 1"
     inkscape:groupmode="layer"
     id="layer1"><path
       style="fill:#000000;stroke-width:0.0288106"
       d="m 27.822065,5.5368197 c -0.214814,-0.054957 -0.215741,-0.059831 -0.21998,-1.1567219 -0.002,-0.5229114 -0.0127,-1.5625905 -0.02374,-2.3103978 -0.02328,-1.57715427 -0.02825,-1.5395134 0.209874,-1.58857099 0.07823,-0.0161156 0.36142,-0.0199093 0.677152,-0.009072 l 0.542698,0.0186288 0.06953,0.0808302 c 0.06009,0.0698554 0.06973,0.11092877 0.07101,0.30250537 8.17e-4,0.12192123 0.01058,0.30594592 0.02171,0.40894352 0.01113,0.1029976 0.01256,0.2520921 0.0032,0.3313212 -0.0094,0.079228 -0.0048,0.7274659 0.01024,1.4405265 0.01502,0.7130606 0.02772,1.527764 0.02822,1.8104518 l 9.23e-4,0.5139778 -0.09102,0.091043 -0.09102,0.091044 -0.539667,0.0043 c -0.32695,0.00261 -0.590681,-0.00875 -0.669088,-0.028811 z m 4.946988,-0.00769 c -0.0083,-0.00828 -0.434426,-0.020124 -0.946979,-0.026308 -1.006452,-0.012145 -1.120185,-0.021239 -1.186201,-0.09484 -0.0368,-0.04103 -0.03778,-0.064398 -0.0065,-0.1548876 0.03063,-0.088513 0.29286,-0.5770211 0.592345,-1.1034745 0.03606,-0.063383 0.130717,-0.2384075 0.210354,-0.3889422 0.07964,-0.1505355 0.179507,-0.3255591 0.221934,-0.3889422 0.04243,-0.063383 0.158746,-0.2643369 0.25849,-0.4465636 0.09974,-0.1822267 0.217117,-0.3961445 0.260828,-0.4753735 0.115868,-0.2100199 0.128743,-0.304947 0.05971,-0.4402644 -0.06742,-0.1321569 -0.202457,-0.2079727 -0.37042,-0.2079727 -0.203909,0 -0.307676,0.1480499 -0.333188,0.4753737 -0.01174,0.1506089 -0.08576,0.3744665 -0.138134,0.4177528 -0.0096,0.00792 -0.10628,0.1695583 -0.214875,0.3591899 C 30.921687,3.4986878 30.857152,3.5723479 30.744523,3.546835 30.569542,3.5071887 30.264732,3.1617455 30.114851,2.83319 29.935304,2.4396008 29.889843,2.0812631 29.965696,1.6575049 c 0.05169,-0.288764 0.09988,-0.394755 0.284908,-0.6266579 0.271982,-0.34087853 0.433831,-0.46719381 0.794418,-0.62000011 0.425944,-0.18050348 0.675561,-0.21055914 1.104729,-0.13301701 0.520736,0.0940868 0.692717,0.18287029 1.135031,0.58594398 0.171973,0.15671694 0.363759,0.42941624 0.465319,0.66162924 0.06637,0.1517444 0.121903,0.487897 0.121782,0.737123 -3.26e-4,0.3059635 -0.09873,0.6025641 -0.339955,1.0227736 -0.306798,0.5344454 -0.338364,0.6060074 -0.306833,0.6956581 0.03562,0.1012998 0.11759,0.1413495 0.380118,0.1857327 0.114855,0.019418 0.226972,0.055857 0.24958,0.081118 0.07546,0.084306 0.136149,0.3840151 0.143476,0.7085037 0.0076,0.3369885 -0.02369,0.4781223 -0.117129,0.5281307 -0.05558,0.029745 -1.085635,0.071134 -1.112087,0.044684 z M 21.118455,5.4184963 c -0.05025,-0.021859 -0.104197,-0.06372 -0.119881,-0.093024 -0.01839,-0.034369 -0.02406,-0.7893661 -0.01595,-2.1271214 0.0069,-1.1406123 0.01224,-2.19952384 0.01184,-2.35313669 -6.53e-4,-0.25418311 0.0055,-0.28655706 0.06874,-0.36004922 l 0.06946,-0.0807531 0.622018,-0.001632 0.622017,-0.001633 0.07759,0.0809808 0.07759,0.0809807 0.01121,0.68404801 c 0.0136,0.8297638 0.01576,1.2584823 0.01136,2.2542225 -0.0019,0.419913 0.0032,0.973957 0.01122,1.2312076 0.02258,0.7236929 0.01718,0.7285139 -0.814722,0.7267809 -0.394513,-8.248e-4 -0.565877,-0.011896 -0.632488,-0.040871 z m 2.295371,-0.037048 c 0,-0.031066 0.03179,-0.1005361 0.07064,-0.1543788 0.0918,-0.1272088 0.243213,-0.3524147 0.346699,-0.5156472 0.04521,-0.071307 0.194444,-0.2787423 0.331639,-0.460969 0.137193,-0.1822266 0.312506,-0.4285567 0.389583,-0.5474002 0.07708,-0.1188436 0.192756,-0.2800882 0.257065,-0.3583234 0.161821,-0.1968583 0.289993,-0.3747459 0.574959,-0.797969 0.134801,-0.2002019 0.294326,-0.4220314 0.354498,-0.4929546 0.06017,-0.070924 0.193678,-0.242664 0.296675,-0.3816458 0.102998,-0.138982 0.241622,-0.3255417 0.308055,-0.4145774 0.06643,-0.089035 0.191151,-0.25953483 0.277153,-0.37888721 0.26243,-0.36420095 0.451381,-0.49284399 0.568373,-0.38696629 0.113828,0.10301222 0.05454,0.22940369 -0.269785,0.57516 -0.08919,0.095075 -0.170689,0.1982994 -0.181126,0.2293879 -0.01945,0.057933 -0.26875,0.3964778 -0.353134,0.4795467 -0.116682,0.1148639 -0.27121,0.311182 -0.507822,0.6451604 -0.153187,0.2162242 -0.201295,0.2769799 -0.363649,0.4592491 -0.0573,0.064329 -0.126981,0.1623381 -0.154844,0.2177987 -0.04879,0.097105 -0.206518,0.3060339 -0.308786,0.4090128 -0.02707,0.027261 -0.07592,0.1018959 -0.108552,0.1658564 -0.03263,0.063961 -0.136885,0.2064052 -0.231679,0.3165438 -0.09479,0.1101395 -0.172352,0.2119137 -0.172352,0.2261655 0,0.014252 -0.02593,0.049378 -0.05762,0.078059 -0.03169,0.028681 -0.05762,0.068504 -0.05762,0.088496 0,0.019993 -0.01137,0.040671 -0.02527,0.045953 -0.0139,0.00528 -0.107601,0.1198032 -0.208223,0.2544928 -0.100621,0.1346887 -0.191965,0.2488772 -0.202987,0.2537519 -0.01102,0.00488 -0.07614,0.082662 -0.144706,0.1728627 -0.154606,0.2033843 -0.185177,0.2360277 -0.221046,0.2360277 -0.01566,0 -0.03279,0.012006 -0.03807,0.02668 -0.0053,0.014674 -0.04526,0.035527 -0.08883,0.046339 -0.06618,0.01642 -0.07923,0.010353 -0.07923,-0.036824 z M 2.151652,5.2701789 C 1.2708424,5.0313721 1.0060897,4.8743448 0.54315817,4.316161 0.50085105,4.265149 0.4305989,4.1827651 0.38704227,4.1330866 0.27754392,4.0081973 0.14120875,3.7125742 0.09304852,3.4956044 0.0025232,3.0877684 -0.0069037,3.0000819 0.00325168,2.6603502 0.01224165,2.359609 0.02766377,2.2627961 0.10477518,2.0230288 0.27894044,1.4814873 0.58866991,1.0234773 1.0129416,0.68008423 1.3547273,0.40345278 1.6411758,0.25673358 2.0940309,0.12634912 c 0.2268928,-0.0653262 0.744661,-0.14598321 0.7834057,-0.1220376 0.015359,0.00949206 0.15977,0.02783748 0.3209148,0.04076768 0.3293568,0.0264274 0.4671366,0.06601612 0.8412258,0.24171198 0.227466,0.10683257 0.6397958,0.40888243 0.7099097,0.52004059 0.010611,0.0168221 0.055987,0.0701552 0.1008368,0.11851819 0.2348935,0.25329414 0.3350842,0.43697414 0.488604,0.89576104 0.081888,0.2447216 0.1043555,0.3622593 0.116591,0.6099621 0.013961,0.2826346 0.00712,0.3392197 -0.086713,0.717666 -0.1035223,0.4175038 -0.2299061,0.7065224 -0.3901526,0.892215 -0.041577,0.048179 -0.1047652,0.1216073 -0.1404181,0.1631728 -0.035653,0.041566 -0.064824,0.085742 -0.064824,0.098168 0,0.070709 -0.6167267,0.5573638 -0.8671527,0.6842639 C 3.414851,5.2355738 2.5435101,5.3764195 2.151652,5.2701789 Z M 3.0368479,3.7198769 C 3.1196378,3.6978577 3.2363206,3.650697 3.2961427,3.6150761 3.4800314,3.5055793 3.7360591,3.2370464 3.8303122,3.0548156 3.9076385,2.9053115 3.9199755,2.8508074 3.9216099,2.651468 3.924964,2.2423908 3.8001155,1.9812123 3.4847212,1.7375141 3.0582873,1.4080181 2.3509457,1.4505668 1.938758,1.8305082 1.6565537,2.0906351 1.5235205,2.4161933 1.5620839,2.7523055 c 0.011818,0.1029976 0.024006,0.2131975 0.027086,0.2448894 0.00308,0.031691 0.033613,0.1029977 0.067854,0.1584574 0.03424,0.055461 0.062791,0.1138022 0.063445,0.1296474 6.533e-4,0.015846 0.042838,0.075005 0.093742,0.1314628 C 2.050458,3.6787907 2.33378,3.7971884 2.6702418,3.7744897 2.7890853,3.7664699 2.9540581,3.7418963 3.0368479,3.7198769 Z M 15.86297,5.2218921 c -0.0941,-0.07225 -0.112955,-0.165925 -0.127003,-0.6310795 -0.02501,-0.8279312 -0.06665,-1.200432 -0.187336,-1.6755343 -0.134965,-0.53132 -0.145764,-0.560348 -0.245513,-0.6599548 -0.09688,-0.09674 -0.103579,-0.096988 -0.209636,-0.00775 -0.130041,0.1094217 -0.360034,0.8050333 -0.452654,1.3690432 -0.06113,0.3722542 -0.129339,1.0148659 -0.129404,1.2191387 -8.2e-5,0.3310105 -0.06066,0.3624378 -0.710302,0.368665 -0.729597,0.00699 -0.787898,-0.023486 -0.787898,-0.4118925 0,-0.2483463 -0.07995,-1.1049568 -0.113777,-1.2191265 -0.01409,-0.047538 -0.03401,-0.1485086 -0.04428,-0.2243819 -0.01027,-0.075873 -0.04179,-0.2055207 -0.07005,-0.2881064 -0.02826,-0.082584 -0.06795,-0.2409081 -0.0882,-0.3518283 -0.06423,-0.3518789 -0.18888,-0.5455235 -0.339497,-0.5273953 -0.101799,0.012253 -0.167819,0.11352 -0.269461,0.4133309 -0.178088,0.5253035 -0.253092,0.965961 -0.322499,1.8947117 -0.05171,0.6919585 0.0039,0.6449147 -0.754927,0.6389856 -0.581151,-0.00454 -0.709963,-0.024197 -0.74426,-0.1135719 -0.02235,-0.058251 -0.0262,-0.7689696 -0.0056,-1.0383977 0.02203,-0.2884477 0.04583,-0.4446322 0.136053,-0.8931264 0.157166,-0.7812353 0.546748,-1.8231778 0.891779,-2.3850775 0.3017,-0.4913309 0.314064,-0.4981361 0.887236,-0.48832578 0.24881,0.004259 0.488368,0.0226314 0.540398,0.0414455 0.05364,0.0193981 0.131731,0.0870872 0.183293,0.15888646 0.09319,0.12976672 0.401912,0.75608082 0.401912,0.81537582 0,0.018558 0.01832,0.068154 0.0407,0.1102134 0.06818,0.1280989 0.151516,0.3309126 0.173478,0.422198 0.02316,0.09626 0.09382,0.1872685 0.145393,0.1872685 0.06858,0 0.157218,-0.1355607 0.226074,-0.3457265 0.209633,-0.63985278 0.439431,-1.16006802 0.56602,-1.2813471 0.117457,-0.11253076 0.226308,-0.12635685 0.883439,-0.11221241 0.726682,0.0156415 0.775952,0.0317578 0.936666,0.30638845 0.304181,0.51979396 0.583545,1.16213826 0.716871,1.64831276 0.04356,0.158823 0.09197,0.3211802 0.107588,0.3607947 0.102104,0.2589722 0.215599,1.1978096 0.227974,1.8858147 0.01584,0.8804713 0.04294,0.851507 -0.795657,0.8502705 -0.442842,-6.533e-4 -0.634321,-0.010993 -0.666909,-0.036013 z M 7.6688693,5.2001685 C 7.2027998,5.1780096 7.1517767,5.1653765 7.1092385,5.0616071 7.0811508,4.9930887 7.0886031,3.767481 7.1200396,3.2852997 7.125205,3.2060714 7.1378243,2.8754701 7.1480823,2.5506314 7.1693,1.8787403 7.1643328,1.8566247 6.9678661,1.7482476 6.8632314,1.6905277 6.7916557,1.6780926 6.4932794,1.6657959 5.9929651,1.6451768 6.007232,1.6593915 6.0285885,1.2028083 6.0612115,0.50535383 6.0845143,0.33662348 6.1591939,0.25713089 l 0.067506,-0.0718561 1.5998064,0.0156738 c 1.6586509,0.0162503 1.94462,0.0337003 2.0128443,0.12282496 0.031602,0.0412831 0.03657,0.16236338 0.02473,0.60267025 -0.015597,0.5799821 -0.039875,0.6934058 -0.162472,0.7590173 -0.030485,0.016316 -0.2057919,0.029664 -0.3895695,0.029664 -0.5841483,0 -0.6212679,0.04348 -0.6394936,0.7490742 -0.00635,0.2456097 -0.022914,0.5437987 -0.03682,0.6626423 -0.013907,0.1188438 -0.025732,0.3522091 -0.026278,0.5185898 -0.00178,0.5435823 -0.035894,1.3096118 -0.060937,1.3684999 -0.013478,0.031692 -0.031058,0.078492 -0.039068,0.1040013 -0.016117,0.051325 -0.22913,0.1151335 -0.3563481,0.1067453 -0.044482,-0.00293 -0.2623827,-0.013962 -0.4842238,-0.02451 z"
       id="path235" /></g></svg>
